<svg xmlns="http://www.w3.org/2000/svg" viewBox="0 0 400 400"><g fill-rule="evenodd"><path d="M0 200v200h400V0H0v200m141.482-18.66c9.956 33.897 13.412 45.322 13.69 45.267.284-.056 20.815-70.355 26.17-89.607l.279-1h46.112v127.733h-31.771l.115-35.133c.113-34.255.23-39.868 1.134-54.133.19-2.992-.312-3.907-.95-1.734-.161.55-5.967 21.22-12.9 45.934L170.754 263.6h-32.949l-13.016-45.833c-7.159-25.209-13.143-45.961-13.298-46.116-.579-.579-.604.184-.189 5.6 1.212 15.828 1.491 26.835 1.495 59.082l.003 27.4H82.133V136h46.032l13.317 45.34m111.585-45.066c12.478.353 15.55.593 20.367 1.595 32.046 6.664 49.499 28.524 49.499 61.998 0 32.45-16.254 54.395-45.6 61.564-8.45 2.064-11.264 2.293-28.333 2.298l-13.267.004v-26.666l1.4-.009c26.468-.173 35.942-2.192 43.435-9.261 10.528-9.931 12.315-37.325 3.317-50.848-6.662-10.012-15.765-13.411-37.685-14.071l-10.467-.315V136h3.8c2.09 0 8.18.123 13.534.274"/><path fill="#fff" d="M82.133 199.867v63.866H112.8l-.003-27.4c-.004-32.247-.283-43.254-1.495-59.082-.415-5.416-.39-6.179.189-5.6.155.155 6.139 20.907 13.298 46.116l13.016 45.833h32.949l12.607-44.933a46988.57 46988.57 0 0 1 12.9-45.934c.638-2.173 1.14-1.258.95 1.734-.904 14.265-1.021 19.878-1.134 54.133l-.115 35.133h31.771V136h-46.112l-.279 1c-5.355 19.252-25.886 89.551-26.17 89.607-.278.055-3.734-11.37-13.69-45.267L128.165 136H82.133v63.867m153.6-50.585v13.281l10.467.315c21.92.66 31.023 4.059 37.685 14.071 8.998 13.523 7.211 40.917-3.317 50.848-7.493 7.069-16.967 9.088-43.435 9.261l-1.4.009v26.666l13.267-.004c17.069-.005 19.883-.234 28.333-2.298 29.346-7.169 45.6-29.114 45.6-61.564 0-33.474-17.453-55.334-49.499-61.998-5.417-1.127-18.89-1.87-33.901-1.869h-3.8v13.282"/></g></svg>